<?xml version="1.0" encoding="UTF-8" standalone="no"?>
<!DOCTYPE svg PUBLIC "-//W3C//DTD SVG 1.1//EN" "http://www.w3.org/Graphics/SVG/1.1/DTD/svg11.dtd">
<svg width="100%" height="100%" viewBox="0 0 594 594" version="1.1" xmlns="http://www.w3.org/2000/svg" xmlns:xlink="http://www.w3.org/1999/xlink" xml:space="preserve" xmlns:serif="http://www.serif.com/" style="fill-rule:evenodd;clip-rule:evenodd;stroke-linejoin:round;stroke-miterlimit:2;">
    <path d="M90,240C92.667,235.333 94,231.667 94,229L95,221L96,218L100,213L102,211L107,202L121,185C124.333,181.667 126.333,177.667 127,173L127,162L128,156L129,152L130,142L132,137L134,129L140,116L143,107L144,102C144.667,96.667 146.667,92 150,88L157,77C159,74 161,73 164,73C164.806,72.895 165.6,73.292 166,74L170,79L178,87L180,91L185,104C186.333,106.667 188.333,108.333 191,109C191.178,109.309 191.178,109.691 191,110L191,111L193,114C194.333,119.333 197.333,125 202,131C204.667,135.667 206.667,141 208,147L210,150C212.667,154.667 216.333,156.667 221,156C226,156 233,155 237,152L240,150L243,150C249,151 251,151 255,148L260,146L267,144C267.656,143.831 268.344,143.831 269,144L277,144L282,143C287.333,143 292.667,142 298,140C310.667,141.333 323,141.667 335,141L342,142L353,144L365,146L366,146L378,152L383,154L392,156L412,145C411.822,144.691 411.822,144.309 412,144L416,140C419,138 421,134 423,130C423.752,128.497 424.768,127.142 426,126L433,120L437,111L440,109C445,107 446,105 448,101L453,97L458,90C458.667,89.333 459,89.667 459,91L464,120L466,130L468,136L469,143L470,155L471,162L473,169L473,170L470,176L470,179L473,194L475,200C479,203.333 482.667,207.333 486,212L487,214L495.776,227.115L501,240L503,244L505,247L508,252C509,256 508,261 510,265C512,270.333 512.667,275.667 512,281L513,286L514,292L514,301L516,315L516,321L515,327L513,359L509,373C507,376 507,380 506,383L504,394L500,402L498,410L492,424L484,435L482,440L476,447L473,452L469,458C464.333,461.333 460,465.333 456,470L452,475L446,479L437,484L427,490L420,493C414,495 412,496 409,499C407,502 404,502 402,503L395,505L388,508L381,510L373,511L357,514L348,514L335,516L333,517C328,514 323,516 318,518L302,518L295,519C290,517 285,517 280,519C279.672,519.085 279.328,519.085 279,519L269,516C264,514 260,514 256,514C255.691,514.178 255.309,514.178 255,514C251,512 246.667,510.667 242,510L226,505L217,502L208,500L195,496C191.667,495.333 188.667,493.667 186,491C182,487 177,484 171,482C167,480 166,479 164,476C162,473.333 159,472 155,472L154,471L143,462L137,460L136,460C135,457 133,453 130,451C127.333,449.667 125.333,448 124,446C123,443 120,442 118,440L115,433L113,428L102,409L100,406L97,401L96,397L94,391L89,378L88,374C88,370.667 87,367.667 85,365L84,364L84,362L85,356L84,344L81,333C79,329 79,325 79,321L80,314C81,308 80,305 78,299L77,296L79,291L80,285L82,272L90,240Z" style="fill:white;"/>
    <path d="M62,281L65.199,266.162L67,249C66.333,245 66.667,242 68,240L71,233L77,220L83,208L86,201C88.667,198.333 90.333,195.667 91,193L94,187L102,176L107,172C107.718,171.408 108.093,170.659 108,170L108,159L109,153C109,148 109,143 111,139L113,134L114,128L118,119L125,98L130,84L138,71L142,64L154,55L163,54L169,56C170.333,57.333 172.667,58.333 176,59L181,64L185,69L189,78L196,86L201,92C203,95 204,96 204,100C204,102 207,103 208,105L213,111L216,117L219,124C221,127 222,129 222,133C222,134.333 223,134.667 225,134L228,133L232,133C236,133 239.333,132 242,130L260,127L273,125L282,123L292,122L300,122L308,120L316,120L322,121L336,122C338,122 341,124 344,123L351,123L363,126L368,127L374,129L379,129L384,130C386.667,130 389,130.667 391,132L393,132L395,130L406,123C411,120 413,116 415,111C415,109.667 416.333,108 419,106L426,99L430,94C432,91.333 434.333,89.333 437,88L442,82L450,73C452,71 454.667,69.667 458,69L466,68L470,68C475,70 479,76 478,81L478,85L480,91L482,104C484,108 482,112 484,116L484,132L486,137L487,141L489,147L490,155L491,162L491,183L496,193L503,201L507,207L509.864,212.727L509.869,212.73L509.873,212.745L510,213L509.935,212.992L511.064,217.467L523.241,239.158L523.142,239.189L526,243L527,250L529,258L529,267L531,278L533,284L533,288L534,299L535,305C536.333,309 536.333,313 535,317L534,319L531.613,333.902L532,351L530,362L530,369C529.333,377 527.333,384.667 524,392L521,403L520,409L517,416L510,428L508,431L502,445L500,451L496,456L490,460C487.333,462 485.333,464.333 484,467L479,477L471,484L463,490C458.333,492.667 453.667,496.333 449,501L445,504L440,505C434,507 430,510 423,514C420,516 414,515 410,517L403,522L398,524L394,526L388,528L383,529C378.333,529 374.667,530.333 372,533L369,533L363,532L357,533L351,533L341,534L335,534L327,535C323,535 319,537 315,536L311,537L294,536L285,537L280,536L274,536L264,535L256,533L248,532L240,529L230,527L218,524L211,521L193,514L185,510L178,506L162,497L149,488L144,485L132,478L127,473L120,468C111.333,460.667 104.333,452 99,442C98,439 96,438 94,436L93,433L85,420L82,416C80.667,413.333 80.333,410.667 81,408L80,405L78,402C75.333,400 73.667,398 73,396L69,376L69,365C67,361 66,359 66,355L66,350L63,336L60,326C58.667,319.333 58.333,313 59,307L61,299L61,284L62,281ZM90,240L82,272L80,285L79,291L77,296L78,299C80,305 81,308 80,314L79,321C79,325 79,329 81,333L84,344L85,356L84,362L84,364L85,365C87,367.667 88,370.667 88,374L89,378L94,391L96,397L97,401L100,406L102,409L113,428L115,433L118,440C120,442 123,443 124,446C125.333,448 127.333,449.667 130,451C133,453 135,457 136,460L137,460L143,462L154,471L155,472C159,472 162,473.333 164,476C166,479 167,480 171,482C177,484 182,487 186,491C188.667,493.667 191.667,495.333 195,496L208,500L217,502L226,505L242,510C246.667,510.667 251,512 255,514C255.309,514.178 255.691,514.178 256,514C260,514 264,514 269,516L279,519C279.328,519.085 279.672,519.085 280,519C285,517 290,517 295,519L302,518L318,518C323,516 328,514 333,517L335,516L348,514L357,514L373,511L381,510L388,508L395,505L402,503C404,502 407,502 409,499C412,496 414,495 420,493L427,490L437,484L446,479L452,475L456,470C460,465.333 464.333,461.333 469,458L473,452L476,447L482,440L484,435L492,424L498,410L500,402L504,394L506,383C507,380 507,376 509,373L513,359L515,327L516,321L516,315L514,301L514,292L513,286L512,281C512.667,275.667 512,270.333 510,265C508,261 509,256 508,252L505,247L503,244L501,240L495.776,227.115L487,214L486,212C482.667,207.333 479,203.333 475,200L473,194L470,179L470,176L473,170L473,169L471,162L470,155L469,143L468,136L466,130L464,120L459,91C459,89.667 458.667,89.333 458,90L453,97L448,101C446,105 445,107 440,109L437,111L433,120L426,126C424.768,127.142 423.752,128.497 423,130C421,134 419,138 416,140L412,144C411.822,144.309 411.822,144.691 412,145L421,150L431,158L435,161C439,164.333 440,168.667 438,174C434,179 429,181 423,177L410,168L402,162L392,156L383,154L378,152L366,146L365,146L353,144L342,142L335,141C323,141.667 310.667,141.333 298,140C292.667,142 287.333,143 282,143L277,144L269,144C268.344,143.831 267.656,143.831 267,144L260,146L255,148C251,151 249,151 243,150L240,150L237,152C233,155 226,156 221,156C216.333,156.667 212.667,154.667 210,150L208,147C206.667,141 204.667,135.667 202,131C197.333,125 194.333,119.333 193,114L191,111L191,110C191.178,109.691 191.178,109.309 191,109C188.333,108.333 186.333,106.667 185,104L180,91L178,87L170,79L166,74C165.6,73.292 164.806,72.895 164,73C161,73 159,74 157,77L150,88C146.667,92 144.667,96.667 144,102L143,107L140,116L134,129L132,137L130,142L129,152L128,156L127,162L127,173C126.333,177.667 124.333,181.667 121,185L107,202L102,211L100,213L96,218L95,221L94,229C94,231.667 92.667,235.333 90,240Z"/>
    <path d="M475,200L465,196L460,192C458,189 456,186 453,185L448,182L438,174C440,168.667 439,164.333 435,161L431,158L421,150L412,145C411.822,144.691 411.822,144.309 412,144L416,140C419,138 421,134 423,130C423.752,128.497 424.768,127.142 426,126L433,120L437,111L440,109C445,107 446,105 448,101L453,97L458,90C458.667,89.333 459,89.667 459,91L464,120L466,130L468,136L469,143L470,155L471,162L473,169L473,170L470,176L470,179L473,194L475,200Z" style="fill:rgb(255,91,76);fill-rule:nonzero;"/>
    <path d="M191,111L193,114C194.333,119.333 197.333,125 202,131C204.667,135.667 206.667,141 208,147L195,154L191,156L180,161L167,167L159,169L150,172L144,173L127,173L127,162L128,156L129,152L130,142L132,137L134,129L148,128L156,126L161,124L176,119L180,118C184,116 188,116 191,111ZM365,146L361,155L358,160L354,165L350,171L342,180L334,187L330,190C328,194 325,195 322,197C316,200 311,208 305,213C301.667,215.667 298,217.333 294,218L288,221L278,225L260,228L247,228L238,230L229,231L195,231L191,232L188,234L187,235C184.333,233.667 182,233.333 180,234L174,235L169,237L168,237C165,236 164,235 160,236L154,236C151,235 148,236 145,237L141,238L131,238L124,239L119,239L111,242L108,241L97,241L90,240C92.667,235.333 94,231.667 94,229L95,221L96,218L100,213L102,211L107,202C109,204 111.333,205.333 114,206L126,206L131,207L140,208L145,208L149,209L163,209C167,209 169,209 172,207L177,206C181.667,206 186,205 190,203L199,201L206,199L227,191L230,189C234,188 235,188 237,186L245,181L250,177L255,174L261,171L269,168L274,165L283,156L293,149C295.667,147 297.333,144 298,140C310.667,141.333 323,141.667 335,141L342,142L353,144L365,146Z" style="fill:rgb(2,107,238);fill-rule:nonzero;"/>
    <path d="M298,140C297.333,144 295.667,147 293,149L283,156L274,165L269,168L261,171L255,174L250,177L245,181L237,186C235,188 234,188 230,189L227,191L206,199L199,201L190,203C186,205 181.667,206 177,206L172,207C169,209 167,209 163,209L149,209L145,208L140,208L131,207L126,206L114,206C111.333,205.333 109,204 107,202L121,185C124.333,181.667 126.333,177.667 127,173L144,173L150,172L159,169L167,167L180,161L191,156L195,154L208,147L210,150C212.667,154.667 216.333,156.667 221,156C226,156 233,155 237,152L240,150L243,150C249,151 251,151 255,148L260,146L267,144C267.656,143.831 268.344,143.831 269,144L277,144L282,143C287.333,143 292.667,142 298,140Z" style="fill:rgb(110,189,255);fill-rule:nonzero;"/>
    <path d="M481,336L479,327L479,306L478,292L479,277L480,268L481,256C480.333,254 480.667,249.667 482,243C488.667,241 495,240 501,240L503,244L505,247L508,252C509,256 508,261 510,265C512,270.333 512.667,275.667 512,281L513,286L514,292L514,301L516,315L516,321L515,327L513,359L509,373C507,376 507,380 506,383L504,394L500,402C497.333,400 495.667,397.333 495,394L492,386L491,380L490,377L486,363L481,336Z" style="fill:rgb(73,178,181);"/>
    <path d="M242,510L226,505L217,502L208,500L195,496C191.667,495.333 188.667,493.667 186,491C182,487 177,484 171,482C167,480 166,479 164,476C162,473.333 159,472 155,472L154,471L143,462L137,460L136,460C135,457 133,453 130,451C127.333,449.667 125.333,448 124,446C123,443 120,442 118,440L115,433L113,428L102,409L100,406L97,401L96,397L94,391L103,390L108,390L114,389L128,391L133,392L139,392L145,393L153,394L163,395L170,398L174,398L181,397L197,401C200,402 202,404 205,403L210,404C217,404 221,408 225,414L228,422C229,426 231,429 231,433L233,441C234.333,445 235,451 235,459L235,466L236,472L238,480L239,485L239,490C239,494.667 240,499.333 242,504L242,510Z" style="fill:rgb(67,241,202);fill-rule:nonzero;"/>
    <g transform="matrix(1,0,0,1,-2.79567,4.09643)">
        <path d="M265.289,404.482C259.784,404.093 255.629,399.308 256.018,393.803C256.406,388.297 261.192,384.143 266.697,384.532C323.158,388.516 357.082,363.942 366.953,344.91C368.58,341.774 371.741,339.729 375.268,339.53C378.796,339.332 382.166,341.009 384.135,343.943C397.899,364.457 430.925,372.191 450.231,368.775C455.666,367.813 460.859,371.445 461.821,376.879C462.782,382.314 459.151,387.507 453.716,388.469C432.099,392.294 397.587,384.799 376.779,365.746C359.288,386.458 322.205,408.498 265.289,404.482Z"/>
    </g>
    <g>
        <g transform="matrix(1,0,0,1,15.8863,3.48529)">
            <path d="M189.337,299.164C184.229,297.072 181.781,291.228 183.873,286.12C185.965,281.013 191.809,278.564 196.917,280.656C217.966,289.277 217.019,294.167 239.884,292.369C245.806,291.904 250.909,289.292 255.701,286.44C262.057,282.658 267.941,278.371 273.811,275.573C278.793,273.198 284.765,275.315 287.14,280.297C289.515,285.279 287.399,291.252 282.417,293.627C277.058,296.181 271.732,300.173 265.929,303.627C258.562,308.011 250.557,311.592 241.452,312.308C213.858,314.478 214.74,309.568 189.337,299.164Z"/>
        </g>
        <g transform="matrix(1,0,0,1,3.62822,1.55114)">
            <path d="M415.826,298.404C410.578,296.696 407.703,291.049 409.411,285.801C411.118,280.552 416.766,277.678 422.014,279.385C424.686,280.255 439.348,285.096 454.099,284.408C462.158,284.032 470.447,282.139 475.668,275.51C479.084,271.175 485.376,270.427 489.712,273.842C494.048,277.257 494.795,283.55 491.38,287.886C482.447,299.227 468.819,303.743 455.031,304.386C437.017,305.227 419.089,299.465 415.826,298.404Z"/>
        </g>
    </g>
    <path d="M510,213C514.667,212.333 519,212.667 523,214L525,214L533,216L537,218C539,219.333 541,219.667 543,219L544,219L549,222L553,224L557,229L559,233C560.333,234.333 561,236 561,238L561,239L562,241L562,242L564,248L565,253L566,256C566.178,256.309 566.178,256.691 566,257L566,274L567,279L567,294L566,297L566,300L567,303L567,309L565,315L563,322L558,331L553,339L549,342L544,345L540,345C538.667,345 537.667,345.667 537,347C535,348 535,350 532,351L513,359L507,360L501,360C495.667,360 490.667,361 486,363L479,362C477,361.333 474.333,361.667 471,363L466,364L458,364L454,363L450,363L447,362L443,362L434,359C432,359 429.667,358 427,356L411,348L406,345L399,340L396,339C392.667,335.667 390,332 388,328L384,317L382,309L381,298L381,263L382,257L382,255L383,251C381.667,248.333 381.333,245.667 382,243L376,243L372,242L365,242L362,244L348,244L346,245L345,245L345,250L347,263L347,297L345,307L342,317L341,321L337,331L331,338C329,340.667 327,342.333 325,343L323,345C321,349.667 318.333,353.667 315,357L300,367L291,370L290,370C288.667,372 287,373 285,373L271,373L258,375L252,376L223,376L217,375C212.333,376.333 208.333,376.667 205,376L199,373L198,372L190,371C188,370 187,368 185,368L181,367L176,362C175,359 173,359 172,357L167,352L166,348C166,346 165,344.333 163,343L161,341L160,338L157,330L155,324L156,316L155,315L153,309L153,297L152,295L149,287L149,281L148,277L146,271L145,267L145,264L144,263C142.667,264.333 141,265 139,265L127,265L122,267L110,267L102,268L99,268L93,269L83,271L82,272L81,271L75,274L62,281L55,294L52,300L50,306L49,310L49,311L48,315L48,320L47,324L47,334L48,340L51,349L51,351L50,354L50,363C49.937,363.77 49.578,364.487 49,365L46,368L44,369L38,368L33,367L27,363L25,359L23,351L22,343L21,334L21,320L22,308L24,302L28,292L29,290L29,287C31,285 32,283 32,281C31.915,280.672 31.915,280.328 32,280L33,277C32.915,276.672 32.915,276.328 33,276L38,271C39.333,268.333 41.333,266.333 44,265L46,263L48,260L52,258L58,256L59,256L67,249L76,245L83,242L90,240L97,241L108,241L111,242L119,239L124,239L131,238L141,238L145,237C148,236 151,235 154,236L160,236C164,235 165,236 168,237L169,237L174,235L180,234C182,233.333 184.333,233.667 187,235L188,234L191,232L195,231L229,231L238,230L247,228L260,228L278,225C279.333,226.333 281,226.667 283,226L286,225L290,224L300,223L308,221C310,221 311,223 313,222L323,220L341,219L345,219L350,218L364,217L369,219L372,218L376,217L387,217L394,216L400,214L412,214L416,215L419,215L425,216L426,216L428,215L430,215L436,214L441,215L444,214L448,214L455,216L460,216L466,217L470,217L476,216C480,216 483.667,215.333 487,214L491,214L502,212L510,213ZM523,239L520,240L516,240L505,241L501,240C495,240 488.667,241 482,243L473,243L469,242L462,242L457,241L454,240L451,240L447,241L440,241L435,242L428,241L427,241L421,243L414,243L409,242C408.451,242 408,242.451 408,243C409.333,245.667 409.333,248.333 408,251L408,252L407,266L407,287L406,292L406,297C407.333,301 408,305.333 408,310L409,313C411,313.667 413,315.333 415,318L420,322L424,324L433,330L439,333L454,336L458,337L465,337L466,338L469,338L481,336L490,336L493,335L496,336L497,335L504,331L511,329L515,327L520,326L527,323L530,321L534,319C538,318.333 540,315.667 540,311L540,306L541,301L542,297L542,296L541,293L542,287L542,271L541,266L540,258L540,257L539,253L538,248C538,246 536,245 534,243L532,241C530.667,237.667 527.667,237 523,239ZM283,249L280,250L277,252L265,252L260,253C253.333,254.333 246,254.667 238,254L234,253L230,254C222.667,256.667 215,258 207,258L189,258C187,258 184,261 181,261L174,260C172,259.333 171.333,260 172,262L173,265L173,275L175,281L175,292L174,294L178,302L179,309L180,312L180,313L181,314L181,315L183,318L182,323L184,331L189,336L193,342L197,346C200.333,346.667 202.667,347.667 204,349L205,350L230,350L246,351L253,350L259,348L275,348L282,347C284,344.333 286.333,342.667 289,342L292,341C295.333,339.667 298,337.667 300,335L302,332L308,326L315,316L318,312L320,288L322,281L321,273L322,266L321,255L319,247L318,246L316,247L314,247L311,248L308,248C306,248 304.333,248.667 303,250L290,250L285,249L283,249Z" style="fill:rgb(255,98,141);fill-rule:nonzero;"/>
</svg>
